<?xml version="1.0" encoding="utf-8"?>
<svg viewBox="28.247 36.074 578.69 126.588" width="578.69" height="126.588" xmlns="http://www.w3.org/2000/svg">
  <path fill="#000000" fill-opacity="0.0" d="M 112.747 46.017 L 242.669 46.017 L 242.669 86.427 L 112.747 86.427 L 112.747 46.017 Z" fill-rule="evenodd" transform="matrix(1, 0, 0, 1, 10.631474, 11.065177)"/>
  <path fill="#000000" d="M 139.974 71.657 L 136.474 59.001 L 137.817 59.001 L 140.989 70.813 L 140.38 70.454 L 142.067 70.454 L 141.411 70.813 L 143.989 59.563 L 145.239 59.563 L 142.395 71.657 L 139.974 71.657 Z M 147.567 71.657 L 144.458 59.563 L 145.739 59.563 L 148.614 70.813 L 147.974 70.454 L 149.692 70.454 L 149.036 70.813 L 151.895 59.001 L 153.208 59.001 L 150.005 71.657 L 147.567 71.657 Z M 158.93 71.954 C 158.138 71.954 157.45 71.819 156.867 71.548 C 156.294 71.277 155.82 70.912 155.445 70.454 C 155.081 69.996 154.81 69.485 154.633 68.923 C 154.456 68.35 154.367 67.767 154.367 67.173 L 154.367 66.923 C 154.367 66.339 154.456 65.767 154.633 65.204 C 154.81 64.631 155.081 64.121 155.445 63.673 C 155.82 63.225 156.289 62.866 156.851 62.595 C 157.414 62.313 158.07 62.173 158.82 62.173 C 159.779 62.173 160.575 62.386 161.211 62.813 C 161.857 63.241 162.341 63.787 162.664 64.454 C 162.987 65.121 163.148 65.834 163.148 66.595 L 163.148 67.267 L 154.961 67.267 L 154.961 66.267 L 162.258 66.267 L 161.93 66.767 C 161.93 66.089 161.81 65.496 161.57 64.985 C 161.331 64.464 160.982 64.058 160.523 63.767 C 160.065 63.475 159.497 63.329 158.82 63.329 C 158.101 63.329 157.503 63.496 157.023 63.829 C 156.555 64.162 156.2 64.605 155.961 65.157 C 155.732 65.709 155.617 66.339 155.617 67.048 C 155.617 67.746 155.732 68.381 155.961 68.954 C 156.2 69.517 156.565 69.97 157.055 70.313 C 157.555 70.647 158.18 70.813 158.93 70.813 C 159.721 70.813 160.367 70.631 160.867 70.267 C 161.367 69.902 161.674 69.47 161.789 68.97 L 162.992 68.97 C 162.878 69.584 162.633 70.116 162.258 70.563 C 161.893 71.001 161.43 71.345 160.867 71.595 C 160.305 71.834 159.659 71.954 158.93 71.954 Z M 170.373 71.954 C 169.571 71.954 168.863 71.777 168.248 71.423 C 167.644 71.058 167.17 70.553 166.826 69.907 C 166.493 69.261 166.316 68.517 166.295 67.673 L 166.685 67.673 L 166.685 71.657 L 165.654 71.657 L 165.654 59.001 L 166.951 59.001 L 166.951 65.329 L 166.451 66.501 C 166.472 65.574 166.654 64.793 166.998 64.157 C 167.352 63.511 167.826 63.022 168.42 62.688 C 169.024 62.345 169.706 62.173 170.467 62.173 C 171.133 62.173 171.738 62.303 172.279 62.563 C 172.821 62.813 173.284 63.157 173.67 63.595 C 174.066 64.032 174.363 64.537 174.56 65.11 C 174.769 65.683 174.873 66.287 174.873 66.923 L 174.873 67.173 C 174.873 67.798 174.769 68.397 174.56 68.97 C 174.352 69.532 174.05 70.043 173.654 70.501 C 173.269 70.949 172.8 71.303 172.248 71.563 C 171.696 71.824 171.071 71.954 170.373 71.954 Z M 170.232 70.813 C 170.93 70.813 171.524 70.647 172.014 70.313 C 172.514 69.97 172.894 69.517 173.154 68.954 C 173.425 68.392 173.56 67.756 173.56 67.048 C 173.56 66.329 173.425 65.694 173.154 65.142 C 172.883 64.579 172.498 64.136 171.998 63.813 C 171.498 63.491 170.909 63.329 170.232 63.329 C 169.618 63.329 169.055 63.47 168.545 63.751 C 168.034 64.022 167.628 64.407 167.326 64.907 C 167.034 65.407 166.889 66.001 166.889 66.688 L 166.889 67.532 C 166.889 68.178 167.034 68.746 167.326 69.235 C 167.628 69.725 168.034 70.11 168.545 70.392 C 169.055 70.673 169.618 70.813 170.232 70.813 Z M 177.507 71.657 L 177.507 59.001 L 178.803 59.001 L 178.803 66.157 L 178.413 66.454 C 178.413 65.6 178.538 64.855 178.788 64.22 C 179.038 63.584 179.413 63.095 179.913 62.751 C 180.423 62.397 181.059 62.22 181.819 62.22 L 181.882 62.22 C 182.996 62.22 183.835 62.584 184.397 63.313 C 184.97 64.032 185.257 65.043 185.257 66.345 L 185.257 71.657 L 183.975 71.657 L 183.975 66.063 C 183.975 65.241 183.751 64.595 183.303 64.126 C 182.856 63.647 182.251 63.407 181.491 63.407 C 180.668 63.407 180.012 63.673 179.522 64.204 C 179.043 64.725 178.803 65.412 178.803 66.267 L 178.803 71.657 L 177.507 71.657 Z M 192.604 71.954 C 191.822 71.954 191.135 71.819 190.541 71.548 C 189.947 71.277 189.442 70.912 189.026 70.454 C 188.619 69.996 188.307 69.485 188.088 68.923 C 187.88 68.35 187.776 67.772 187.776 67.188 L 187.776 66.938 C 187.776 66.355 187.885 65.777 188.104 65.204 C 188.322 64.631 188.64 64.121 189.057 63.673 C 189.473 63.225 189.979 62.866 190.572 62.595 C 191.166 62.313 191.843 62.173 192.604 62.173 C 193.385 62.173 194.072 62.313 194.666 62.595 C 195.26 62.866 195.765 63.225 196.182 63.673 C 196.598 64.121 196.911 64.631 197.119 65.204 C 197.338 65.777 197.447 66.355 197.447 66.938 L 197.447 67.188 C 197.447 67.772 197.343 68.35 197.135 68.923 C 196.927 69.485 196.614 69.996 196.197 70.454 C 195.791 70.912 195.286 71.277 194.682 71.548 C 194.088 71.819 193.395 71.954 192.604 71.954 Z M 192.604 70.798 C 193.374 70.798 194.02 70.626 194.541 70.282 C 195.072 69.938 195.473 69.491 195.744 68.938 C 196.026 68.376 196.166 67.751 196.166 67.063 C 196.166 66.376 196.02 65.751 195.729 65.188 C 195.447 64.626 195.041 64.183 194.51 63.86 C 193.979 63.527 193.343 63.36 192.604 63.36 C 191.885 63.36 191.26 63.527 190.729 63.86 C 190.197 64.183 189.786 64.626 189.494 65.188 C 189.213 65.751 189.072 66.376 189.072 67.063 C 189.072 67.751 189.208 68.376 189.479 68.938 C 189.76 69.491 190.161 69.938 190.682 70.282 C 191.213 70.626 191.854 70.798 192.604 70.798 Z M 204.196 71.954 C 203.415 71.954 202.727 71.819 202.134 71.548 C 201.54 71.277 201.035 70.912 200.618 70.454 C 200.212 69.996 199.899 69.485 199.68 68.923 C 199.472 68.35 199.368 67.772 199.368 67.188 L 199.368 66.938 C 199.368 66.355 199.477 65.777 199.696 65.204 C 199.915 64.631 200.233 64.121 200.649 63.673 C 201.066 63.225 201.571 62.866 202.165 62.595 C 202.759 62.313 203.436 62.173 204.196 62.173 C 204.977 62.173 205.665 62.313 206.259 62.595 C 206.852 62.866 207.358 63.225 207.774 63.673 C 208.191 64.121 208.503 64.631 208.712 65.204 C 208.93 65.777 209.04 66.355 209.04 66.938 L 209.04 67.188 C 209.04 67.772 208.936 68.35 208.727 68.923 C 208.519 69.485 208.207 69.996 207.79 70.454 C 207.384 70.912 206.878 71.277 206.274 71.548 C 205.68 71.819 204.988 71.954 204.196 71.954 Z M 204.196 70.798 C 204.967 70.798 205.613 70.626 206.134 70.282 C 206.665 69.938 207.066 69.491 207.337 68.938 C 207.618 68.376 207.759 67.751 207.759 67.063 C 207.759 66.376 207.613 65.751 207.321 65.188 C 207.04 64.626 206.634 64.183 206.102 63.86 C 205.571 63.527 204.936 63.36 204.196 63.36 C 203.477 63.36 202.852 63.527 202.321 63.86 C 201.79 64.183 201.378 64.626 201.087 65.188 C 200.805 65.751 200.665 66.376 200.665 67.063 C 200.665 67.751 200.8 68.376 201.071 68.938 C 201.352 69.491 201.753 69.938 202.274 70.282 C 202.805 70.626 203.446 70.798 204.196 70.798 Z M 217.929 71.657 L 214.242 67.36 L 212.742 67.36 L 217.101 62.485 L 218.476 62.485 L 214.585 66.845 L 214.664 66.126 L 219.445 71.657 L 217.929 71.657 Z M 211.695 71.657 L 211.695 59.001 L 212.992 59.001 L 212.992 71.657 L 211.695 71.657 Z" fill-rule="nonzero" transform="matrix(1, 0, 0, 1, 10.631474, 11.065177)"/>
  <path fill="#dcd4e0" d="M 18.498 91.938 C 18.498 61.541 43.14 36.899 73.537 36.899 C 88.135 36.899 102.134 42.698 112.456 53.02 C 122.778 63.342 128.577 77.341 128.577 91.938 C 128.577 122.336 103.935 146.978 73.537 146.978 C 43.14 146.978 18.498 122.336 18.498 91.938 Z" fill-rule="evenodd" transform="matrix(1, 0, 0, 1, 10.631474, 11.065177)"/>
  <path fill="#dcd4e0" d="M 242.669 93.56 C 242.669 63.163 267.311 38.521 297.708 38.521 C 312.305 38.521 326.305 44.32 336.627 54.642 C 346.949 64.964 352.747 78.963 352.747 93.56 C 352.747 123.958 328.105 148.6 297.708 148.6 C 267.311 148.6 242.669 123.958 242.669 93.56 Z" fill-rule="evenodd" transform="matrix(1, 0, 0, 1, 10.631474, 11.065177)"/>
  <path fill="#4b148c" d="M 138.511 84.44 L 221.582 84.44 L 221.582 80.322 L 229.818 88.558 L 221.582 96.794 L 221.582 92.676 L 138.511 92.676 L 138.511 84.44 Z" fill-rule="evenodd" transform="matrix(1, 0, 0, 1, 10.631474, 11.065177)"/>
  <path fill="#000000" fill-opacity="0.0" d="M 225.529 73.356 L 368.553 73.356 L 368.553 113.765 L 225.529 113.765 L 225.529 73.356 Z" fill-rule="evenodd" transform="matrix(1, 0, 0, 1, 10.631474, 11.065177)"/>
  <path fill="#000000" d="M 277.234 94.371 L 277.234 93.215 L 280.172 93.215 C 280.849 93.215 281.401 93.084 281.828 92.824 C 282.265 92.563 282.583 92.22 282.781 91.793 C 282.989 91.355 283.093 90.871 283.093 90.34 C 283.093 89.787 282.989 89.298 282.781 88.871 C 282.583 88.433 282.265 88.09 281.828 87.84 C 281.401 87.579 280.849 87.449 280.172 87.449 L 277.234 87.449 L 277.234 86.293 L 279.953 86.293 C 280.963 86.293 281.802 86.459 282.468 86.793 C 283.135 87.126 283.63 87.59 283.953 88.183 C 284.286 88.777 284.453 89.454 284.453 90.215 L 284.453 90.449 C 284.453 91.199 284.286 91.876 283.953 92.48 C 283.63 93.074 283.135 93.537 282.468 93.871 C 281.802 94.204 280.963 94.371 279.953 94.371 L 277.234 94.371 Z M 276.25 98.996 L 276.25 86.293 L 277.578 86.293 L 277.578 98.996 L 276.25 98.996 Z M 287.404 98.996 L 287.404 89.824 L 288.685 89.824 L 288.685 98.996 L 287.404 98.996 Z M 285.92 90.871 L 285.92 89.824 L 288.685 89.824 L 288.685 90.871 L 285.92 90.871 Z M 287.67 88.136 C 287.357 88.136 287.123 88.053 286.967 87.886 C 286.81 87.72 286.732 87.506 286.732 87.246 C 286.732 86.996 286.81 86.787 286.967 86.621 C 287.123 86.454 287.357 86.371 287.67 86.371 C 287.982 86.371 288.211 86.454 288.357 86.621 C 288.513 86.787 288.592 86.996 288.592 87.246 C 288.592 87.506 288.513 87.72 288.357 87.886 C 288.211 88.053 287.982 88.136 287.67 88.136 Z M 292.101 102.465 L 292.101 89.824 L 293.132 89.824 L 293.132 93.761 L 292.82 93.793 C 292.872 92.876 293.07 92.1 293.413 91.465 C 293.767 90.829 294.247 90.345 294.851 90.011 C 295.465 89.678 296.148 89.511 296.898 89.511 C 297.564 89.511 298.169 89.642 298.71 89.902 C 299.262 90.162 299.731 90.517 300.116 90.965 C 300.512 91.412 300.809 91.923 301.007 92.496 C 301.215 93.058 301.32 93.652 301.32 94.277 L 301.32 94.527 C 301.32 95.152 301.215 95.751 301.007 96.324 C 300.799 96.897 300.497 97.407 300.101 97.855 C 299.715 98.293 299.247 98.642 298.695 98.902 C 298.153 99.162 297.544 99.293 296.866 99.293 C 296.137 99.293 295.465 99.131 294.851 98.808 C 294.247 98.475 293.757 97.985 293.382 97.34 C 293.007 96.683 292.804 95.881 292.773 94.933 L 293.398 96.246 L 293.398 102.465 L 292.101 102.465 Z M 296.679 98.152 C 297.377 98.152 297.971 97.985 298.46 97.652 C 298.96 97.319 299.34 96.871 299.601 96.308 C 299.872 95.735 300.007 95.1 300.007 94.402 C 300.007 93.683 299.872 93.048 299.601 92.496 C 299.33 91.933 298.945 91.491 298.445 91.168 C 297.955 90.834 297.366 90.668 296.679 90.668 C 296.064 90.668 295.502 90.808 294.991 91.09 C 294.481 91.36 294.075 91.746 293.773 92.246 C 293.481 92.746 293.335 93.34 293.335 94.027 L 293.335 94.871 C 293.335 95.517 293.481 96.084 293.773 96.574 C 294.075 97.063 294.481 97.449 294.991 97.73 C 295.502 98.011 296.064 98.152 296.679 98.152 Z M 307.781 99.293 C 306.99 99.293 306.302 99.157 305.719 98.886 C 305.146 98.616 304.672 98.251 304.297 97.793 C 303.932 97.334 303.661 96.824 303.484 96.261 C 303.307 95.688 303.219 95.105 303.219 94.511 L 303.219 94.261 C 303.219 93.678 303.307 93.105 303.484 92.543 C 303.661 91.97 303.932 91.459 304.297 91.011 C 304.672 90.563 305.141 90.204 305.703 89.933 C 306.266 89.652 306.922 89.511 307.672 89.511 C 308.63 89.511 309.427 89.725 310.063 90.152 C 310.708 90.579 311.193 91.126 311.516 91.793 C 311.839 92.459 312 93.173 312 93.933 L 312 94.605 L 303.813 94.605 L 303.813 93.605 L 311.109 93.605 L 310.781 94.105 C 310.781 93.428 310.661 92.834 310.422 92.324 C 310.182 91.803 309.833 91.397 309.375 91.105 C 308.917 90.813 308.349 90.668 307.672 90.668 C 306.953 90.668 306.354 90.834 305.875 91.168 C 305.406 91.501 305.052 91.944 304.813 92.496 C 304.583 93.048 304.469 93.678 304.469 94.386 C 304.469 95.084 304.583 95.72 304.813 96.293 C 305.052 96.855 305.417 97.308 305.906 97.652 C 306.406 97.985 307.031 98.152 307.781 98.152 C 308.573 98.152 309.219 97.97 309.719 97.605 C 310.219 97.241 310.526 96.808 310.641 96.308 L 311.844 96.308 C 311.729 96.923 311.484 97.454 311.109 97.902 C 310.745 98.34 310.281 98.683 309.719 98.933 C 309.156 99.173 308.51 99.293 307.781 99.293 Z M 314.506 98.996 L 314.506 89.824 L 315.537 89.824 L 315.537 93.652 L 315.428 93.652 C 315.428 92.319 315.725 91.334 316.318 90.699 C 316.912 90.053 317.834 89.73 319.084 89.73 L 319.381 89.73 L 319.381 90.902 L 318.85 90.902 C 317.86 90.902 317.105 91.162 316.584 91.683 C 316.063 92.194 315.803 92.944 315.803 93.933 L 315.803 98.996 L 314.506 98.996 Z" fill-rule="nonzero" transform="matrix(1, 0, 0, 1, 10.631474, 11.065177)"/>
  <path fill="#000000" d="M 22.522 88.789 C 21.46 88.789 20.564 88.617 19.835 88.273 C 19.105 87.929 18.553 87.455 18.178 86.851 C 17.803 86.247 17.616 85.565 17.616 84.804 L 18.928 84.804 C 18.928 85.284 19.048 85.737 19.288 86.164 C 19.527 86.58 19.908 86.919 20.428 87.179 C 20.96 87.44 21.658 87.57 22.522 87.57 C 23.314 87.57 23.97 87.455 24.491 87.226 C 25.022 86.997 25.418 86.685 25.678 86.289 C 25.939 85.893 26.069 85.455 26.069 84.976 C 26.069 84.362 25.829 83.851 25.35 83.445 C 24.871 83.028 24.152 82.784 23.194 82.711 L 21.741 82.57 C 20.658 82.476 19.793 82.138 19.147 81.554 C 18.512 80.971 18.194 80.2 18.194 79.242 C 18.194 78.513 18.366 77.872 18.71 77.32 C 19.053 76.757 19.543 76.315 20.178 75.992 C 20.824 75.669 21.6 75.507 22.506 75.507 C 23.413 75.507 24.194 75.674 24.85 76.007 C 25.506 76.341 26.006 76.794 26.35 77.367 C 26.694 77.94 26.866 78.612 26.866 79.382 L 25.553 79.382 C 25.553 78.914 25.449 78.481 25.241 78.086 C 25.033 77.679 24.704 77.351 24.256 77.101 C 23.809 76.851 23.225 76.726 22.506 76.726 C 21.819 76.726 21.251 76.841 20.803 77.07 C 20.366 77.299 20.038 77.606 19.819 77.992 C 19.611 78.377 19.506 78.794 19.506 79.242 C 19.506 79.804 19.71 80.284 20.116 80.679 C 20.522 81.075 21.105 81.299 21.866 81.351 L 23.319 81.492 C 24.173 81.565 24.902 81.752 25.506 82.054 C 26.111 82.356 26.574 82.757 26.897 83.257 C 27.23 83.747 27.397 84.32 27.397 84.976 C 27.397 85.716 27.194 86.377 26.788 86.961 C 26.392 87.534 25.829 87.981 25.1 88.304 C 24.371 88.627 23.512 88.789 22.522 88.789 Z M 34.35 88.789 C 33.568 88.789 32.881 88.653 32.287 88.382 C 31.693 88.112 31.188 87.747 30.772 87.289 C 30.365 86.83 30.053 86.32 29.834 85.757 C 29.626 85.185 29.522 84.606 29.522 84.023 L 29.522 83.773 C 29.522 83.19 29.631 82.612 29.85 82.039 C 30.068 81.466 30.386 80.955 30.803 80.507 C 31.22 80.06 31.725 79.7 32.318 79.429 C 32.912 79.148 33.589 79.007 34.35 79.007 C 35.131 79.007 35.818 79.148 36.412 79.429 C 37.006 79.7 37.511 80.06 37.928 80.507 C 38.345 80.955 38.657 81.466 38.865 82.039 C 39.084 82.612 39.193 83.19 39.193 83.773 L 39.193 84.023 C 39.193 84.606 39.089 85.185 38.881 85.757 C 38.673 86.32 38.36 86.83 37.943 87.289 C 37.537 87.747 37.032 88.112 36.428 88.382 C 35.834 88.653 35.141 88.789 34.35 88.789 Z M 34.35 87.632 C 35.121 87.632 35.766 87.461 36.287 87.117 C 36.818 86.773 37.22 86.325 37.49 85.773 C 37.772 85.211 37.912 84.586 37.912 83.898 C 37.912 83.211 37.766 82.586 37.475 82.023 C 37.193 81.461 36.787 81.018 36.256 80.695 C 35.725 80.362 35.089 80.195 34.35 80.195 C 33.631 80.195 33.006 80.362 32.475 80.695 C 31.943 81.018 31.532 81.461 31.24 82.023 C 30.959 82.586 30.818 83.211 30.818 83.898 C 30.818 84.586 30.954 85.211 31.225 85.773 C 31.506 86.325 31.907 86.773 32.428 87.117 C 32.959 87.461 33.6 87.632 34.35 87.632 Z M 45.02 88.757 C 43.916 88.757 43.072 88.403 42.489 87.695 C 41.916 86.976 41.63 85.981 41.63 84.711 L 41.63 79.304 L 42.911 79.304 L 42.911 84.976 C 42.911 85.768 43.119 86.398 43.536 86.867 C 43.963 87.336 44.552 87.57 45.302 87.57 C 46.093 87.57 46.723 87.325 47.192 86.836 C 47.661 86.336 47.895 85.669 47.895 84.836 L 47.895 79.304 L 49.192 79.304 L 49.192 88.492 L 48.145 88.492 L 48.145 84.664 L 48.364 84.664 C 48.364 85.518 48.239 86.247 47.989 86.851 C 47.749 87.455 47.385 87.924 46.895 88.257 C 46.416 88.591 45.807 88.757 45.067 88.757 L 45.02 88.757 Z M 52.592 88.492 L 52.592 79.32 L 53.623 79.32 L 53.623 83.148 L 53.514 83.148 C 53.514 81.815 53.811 80.83 54.404 80.195 C 54.998 79.549 55.92 79.226 57.17 79.226 L 57.467 79.226 L 57.467 80.398 L 56.936 80.398 C 55.946 80.398 55.191 80.659 54.67 81.179 C 54.149 81.69 53.889 82.44 53.889 83.429 L 53.889 88.492 L 52.592 88.492 Z M 63.313 88.789 C 62.542 88.789 61.87 88.653 61.297 88.382 C 60.725 88.112 60.245 87.742 59.86 87.273 C 59.485 86.804 59.198 86.289 59.001 85.726 C 58.813 85.153 58.719 84.58 58.719 84.007 L 58.719 83.757 C 58.719 83.174 58.813 82.601 59.001 82.039 C 59.198 81.476 59.485 80.971 59.86 80.523 C 60.245 80.065 60.725 79.7 61.297 79.429 C 61.87 79.148 62.532 79.007 63.282 79.007 C 64.042 79.007 64.719 79.148 65.313 79.429 C 65.907 79.711 66.386 80.106 66.751 80.617 C 67.126 81.117 67.35 81.716 67.422 82.414 L 66.172 82.414 C 66.068 81.778 65.771 81.252 65.282 80.836 C 64.792 80.409 64.126 80.195 63.282 80.195 C 62.553 80.195 61.948 80.362 61.469 80.695 C 60.99 81.018 60.626 81.461 60.376 82.023 C 60.136 82.586 60.016 83.205 60.016 83.882 C 60.016 84.549 60.136 85.169 60.376 85.742 C 60.626 86.315 60.99 86.773 61.469 87.117 C 61.959 87.461 62.573 87.632 63.313 87.632 C 63.876 87.632 64.365 87.534 64.782 87.336 C 65.209 87.127 65.553 86.851 65.813 86.507 C 66.073 86.153 66.23 85.768 66.282 85.351 L 67.516 85.351 C 67.475 86.049 67.261 86.659 66.876 87.179 C 66.49 87.69 65.99 88.086 65.376 88.367 C 64.761 88.648 64.073 88.789 63.313 88.789 Z M 73.748 88.789 C 72.956 88.789 72.269 88.653 71.685 88.382 C 71.113 88.112 70.639 87.747 70.264 87.289 C 69.899 86.83 69.628 86.32 69.451 85.757 C 69.274 85.185 69.185 84.601 69.185 84.007 L 69.185 83.757 C 69.185 83.174 69.274 82.601 69.451 82.039 C 69.628 81.466 69.899 80.955 70.264 80.507 C 70.639 80.06 71.107 79.7 71.67 79.429 C 72.232 79.148 72.889 79.007 73.639 79.007 C 74.597 79.007 75.394 79.221 76.029 79.648 C 76.675 80.075 77.159 80.622 77.482 81.289 C 77.805 81.955 77.967 82.669 77.967 83.429 L 77.967 84.101 L 69.779 84.101 L 69.779 83.101 L 77.076 83.101 L 76.748 83.601 C 76.748 82.924 76.628 82.33 76.389 81.82 C 76.149 81.299 75.8 80.893 75.342 80.601 C 74.883 80.31 74.316 80.164 73.639 80.164 C 72.92 80.164 72.321 80.33 71.842 80.664 C 71.373 80.997 71.019 81.44 70.779 81.992 C 70.55 82.544 70.435 83.174 70.435 83.882 C 70.435 84.58 70.55 85.216 70.779 85.789 C 71.019 86.351 71.383 86.804 71.873 87.148 C 72.373 87.481 72.998 87.648 73.748 87.648 C 74.54 87.648 75.185 87.466 75.685 87.101 C 76.185 86.737 76.493 86.304 76.607 85.804 L 77.81 85.804 C 77.696 86.419 77.451 86.95 77.076 87.398 C 76.711 87.836 76.248 88.179 75.685 88.429 C 75.123 88.669 74.477 88.789 73.748 88.789 Z M 90.182 88.789 C 89.057 88.789 88.088 88.591 87.276 88.195 C 86.474 87.789 85.823 87.263 85.323 86.617 C 84.823 85.971 84.458 85.273 84.229 84.523 C 84 83.763 83.885 83.023 83.885 82.304 L 83.885 81.976 C 83.885 81.205 84 80.435 84.229 79.664 C 84.468 78.893 84.838 78.195 85.338 77.57 C 85.849 76.945 86.494 76.445 87.276 76.07 C 88.057 75.695 88.989 75.507 90.073 75.507 C 91.156 75.507 92.093 75.7 92.885 76.086 C 93.677 76.471 94.307 77.007 94.776 77.695 C 95.255 78.382 95.546 79.19 95.651 80.117 L 94.307 80.117 C 94.213 79.367 93.968 78.742 93.573 78.242 C 93.187 77.742 92.692 77.367 92.088 77.117 C 91.484 76.856 90.812 76.726 90.073 76.726 C 89.27 76.726 88.567 76.867 87.963 77.148 C 87.359 77.429 86.854 77.825 86.448 78.336 C 86.041 78.836 85.734 79.414 85.526 80.07 C 85.317 80.716 85.213 81.409 85.213 82.148 C 85.213 82.856 85.312 83.534 85.51 84.179 C 85.718 84.825 86.031 85.409 86.448 85.929 C 86.864 86.44 87.38 86.841 87.994 87.132 C 88.619 87.424 89.349 87.57 90.182 87.57 C 91.338 87.57 92.307 87.278 93.088 86.695 C 93.88 86.112 94.369 85.273 94.557 84.179 L 95.885 84.179 C 95.76 85.044 95.458 85.825 94.979 86.523 C 94.51 87.221 93.875 87.773 93.073 88.179 C 92.27 88.586 91.307 88.789 90.182 88.789 Z M 102.362 88.789 C 101.581 88.789 100.893 88.653 100.3 88.382 C 99.706 88.112 99.201 87.747 98.784 87.289 C 98.378 86.83 98.065 86.32 97.847 85.757 C 97.638 85.185 97.534 84.606 97.534 84.023 L 97.534 83.773 C 97.534 83.19 97.643 82.612 97.862 82.039 C 98.081 81.466 98.399 80.955 98.815 80.507 C 99.232 80.06 99.737 79.7 100.331 79.429 C 100.925 79.148 101.602 79.007 102.362 79.007 C 103.143 79.007 103.831 79.148 104.425 79.429 C 105.018 79.7 105.524 80.06 105.94 80.507 C 106.357 80.955 106.669 81.466 106.878 82.039 C 107.097 82.612 107.206 83.19 107.206 83.773 L 107.206 84.023 C 107.206 84.606 107.102 85.185 106.893 85.757 C 106.685 86.32 106.373 86.83 105.956 87.289 C 105.55 87.747 105.044 88.112 104.44 88.382 C 103.847 88.653 103.154 88.789 102.362 88.789 Z M 102.362 87.632 C 103.133 87.632 103.779 87.461 104.3 87.117 C 104.831 86.773 105.232 86.325 105.503 85.773 C 105.784 85.211 105.925 84.586 105.925 83.898 C 105.925 83.211 105.779 82.586 105.487 82.023 C 105.206 81.461 104.8 81.018 104.268 80.695 C 103.737 80.362 103.102 80.195 102.362 80.195 C 101.643 80.195 101.018 80.362 100.487 80.695 C 99.956 81.018 99.544 81.461 99.253 82.023 C 98.972 82.586 98.831 83.211 98.831 83.898 C 98.831 84.586 98.966 85.211 99.237 85.773 C 99.518 86.325 99.919 86.773 100.44 87.117 C 100.972 87.461 101.612 87.632 102.362 87.632 Z M 113.611 88.789 C 112.944 88.789 112.335 88.664 111.783 88.414 C 111.241 88.164 110.767 87.82 110.361 87.382 C 109.965 86.935 109.658 86.424 109.439 85.851 C 109.231 85.278 109.127 84.669 109.127 84.023 L 109.127 83.773 C 109.127 83.148 109.231 82.554 109.439 81.992 C 109.647 81.419 109.944 80.909 110.33 80.461 C 110.715 80.013 111.184 79.659 111.736 79.398 C 112.288 79.138 112.903 79.007 113.58 79.007 C 114.35 79.007 115.028 79.179 115.611 79.523 C 116.205 79.856 116.679 80.341 117.033 80.976 C 117.397 81.601 117.59 82.367 117.611 83.273 L 117.048 82.195 L 117.048 75.836 L 118.345 75.836 L 118.345 88.492 L 117.298 88.492 L 117.298 84.414 L 117.72 84.414 C 117.699 85.372 117.502 86.179 117.127 86.836 C 116.752 87.492 116.257 87.981 115.642 88.304 C 115.038 88.627 114.361 88.789 113.611 88.789 Z M 113.783 87.648 C 114.408 87.648 114.97 87.507 115.47 87.226 C 115.981 86.945 116.377 86.549 116.658 86.039 C 116.949 85.528 117.095 84.935 117.095 84.257 L 117.095 83.429 C 117.095 82.784 116.949 82.216 116.658 81.726 C 116.377 81.237 115.981 80.856 115.47 80.586 C 114.97 80.304 114.403 80.164 113.767 80.164 C 113.09 80.164 112.496 80.33 111.986 80.664 C 111.486 80.987 111.1 81.429 110.83 81.992 C 110.559 82.554 110.423 83.19 110.423 83.898 C 110.423 84.627 110.559 85.278 110.83 85.851 C 111.111 86.414 111.507 86.856 112.017 87.179 C 112.528 87.492 113.116 87.648 113.783 87.648 Z M 125.541 88.789 C 124.75 88.789 124.062 88.653 123.479 88.382 C 122.906 88.112 122.432 87.747 122.057 87.289 C 121.692 86.83 121.422 86.32 121.245 85.757 C 121.067 85.185 120.979 84.601 120.979 84.007 L 120.979 83.757 C 120.979 83.174 121.067 82.601 121.245 82.039 C 121.422 81.466 121.692 80.955 122.057 80.507 C 122.432 80.06 122.901 79.7 123.463 79.429 C 124.026 79.148 124.682 79.007 125.432 79.007 C 126.39 79.007 127.187 79.221 127.823 79.648 C 128.468 80.075 128.953 80.622 129.276 81.289 C 129.599 81.955 129.76 82.669 129.76 83.429 L 129.76 84.101 L 121.573 84.101 L 121.573 83.101 L 128.87 83.101 L 128.541 83.601 C 128.541 82.924 128.422 82.33 128.182 81.82 C 127.942 81.299 127.593 80.893 127.135 80.601 C 126.677 80.31 126.109 80.164 125.432 80.164 C 124.713 80.164 124.114 80.33 123.635 80.664 C 123.166 80.997 122.812 81.44 122.573 81.992 C 122.343 82.544 122.229 83.174 122.229 83.882 C 122.229 84.58 122.343 85.216 122.573 85.789 C 122.812 86.351 123.177 86.804 123.666 87.148 C 124.166 87.481 124.791 87.648 125.541 87.648 C 126.333 87.648 126.979 87.466 127.479 87.101 C 127.979 86.737 128.286 86.304 128.401 85.804 L 129.604 85.804 C 129.489 86.419 129.245 86.95 128.87 87.398 C 128.505 87.836 128.041 88.179 127.479 88.429 C 126.916 88.669 126.271 88.789 125.541 88.789 Z" fill-rule="nonzero" transform="matrix(1, 0, 0, 1, 10.631474, 11.065177)"/>
  <path fill="#000000" d="M 52.639 109.292 L 52.639 96.589 L 53.967 96.589 L 53.967 109.292 L 52.639 109.292 Z M 60.499 109.292 L 56.186 103.698 L 57.717 103.698 L 62.108 109.292 L 60.499 109.292 Z M 53.42 104.495 L 53.42 103.307 L 56.827 103.307 C 57.452 103.307 57.967 103.188 58.374 102.948 C 58.79 102.708 59.103 102.38 59.311 101.964 C 59.519 101.547 59.624 101.073 59.624 100.542 C 59.624 100.011 59.519 99.537 59.311 99.12 C 59.103 98.703 58.79 98.37 58.374 98.12 C 57.967 97.87 57.452 97.745 56.827 97.745 L 53.42 97.745 L 53.42 96.589 L 56.592 96.589 C 57.53 96.589 58.321 96.74 58.967 97.042 C 59.624 97.333 60.124 97.766 60.467 98.339 C 60.811 98.901 60.983 99.594 60.983 100.417 L 60.983 100.667 C 60.983 101.479 60.806 102.172 60.452 102.745 C 60.108 103.318 59.613 103.755 58.967 104.057 C 58.321 104.349 57.53 104.495 56.592 104.495 L 53.42 104.495 Z M 67.917 109.589 C 67.125 109.589 66.438 109.453 65.855 109.182 C 65.282 108.912 64.808 108.547 64.433 108.089 C 64.068 107.63 63.797 107.12 63.62 106.557 C 63.443 105.985 63.355 105.401 63.355 104.807 L 63.355 104.557 C 63.355 103.974 63.443 103.401 63.62 102.839 C 63.797 102.266 64.068 101.755 64.433 101.307 C 64.808 100.86 65.276 100.5 65.839 100.229 C 66.401 99.948 67.058 99.807 67.808 99.807 C 68.766 99.807 69.563 100.021 70.198 100.448 C 70.844 100.875 71.328 101.422 71.651 102.089 C 71.974 102.755 72.136 103.469 72.136 104.229 L 72.136 104.901 L 63.948 104.901 L 63.948 103.901 L 71.245 103.901 L 70.917 104.401 C 70.917 103.724 70.797 103.13 70.558 102.62 C 70.318 102.099 69.969 101.693 69.511 101.401 C 69.052 101.11 68.485 100.964 67.808 100.964 C 67.089 100.964 66.49 101.13 66.011 101.464 C 65.542 101.797 65.188 102.24 64.948 102.792 C 64.719 103.344 64.605 103.974 64.605 104.682 C 64.605 105.38 64.719 106.016 64.948 106.589 C 65.188 107.151 65.552 107.604 66.042 107.948 C 66.542 108.281 67.167 108.448 67.917 108.448 C 68.709 108.448 69.355 108.266 69.855 107.901 C 70.355 107.537 70.662 107.104 70.776 106.604 L 71.98 106.604 C 71.865 107.219 71.62 107.75 71.245 108.198 C 70.881 108.636 70.417 108.979 69.855 109.229 C 69.292 109.469 68.646 109.589 67.917 109.589 Z M 74.642 112.761 L 74.642 100.12 L 75.673 100.12 L 75.673 104.057 L 75.36 104.089 C 75.413 103.172 75.61 102.396 75.954 101.761 C 76.308 101.125 76.788 100.641 77.392 100.307 C 78.006 99.974 78.689 99.807 79.439 99.807 C 80.105 99.807 80.709 99.938 81.251 100.198 C 81.803 100.458 82.272 100.813 82.657 101.261 C 83.053 101.708 83.35 102.219 83.548 102.792 C 83.756 103.354 83.86 103.948 83.86 104.573 L 83.86 104.823 C 83.86 105.448 83.756 106.047 83.548 106.62 C 83.34 107.193 83.038 107.703 82.642 108.151 C 82.256 108.589 81.788 108.938 81.235 109.198 C 80.694 109.458 80.084 109.589 79.407 109.589 C 78.678 109.589 78.006 109.427 77.392 109.104 C 76.788 108.771 76.298 108.281 75.923 107.636 C 75.548 106.979 75.345 106.177 75.314 105.229 L 75.939 106.542 L 75.939 112.761 L 74.642 112.761 Z M 79.22 108.448 C 79.918 108.448 80.511 108.281 81.001 107.948 C 81.501 107.615 81.881 107.167 82.142 106.604 C 82.413 106.031 82.548 105.396 82.548 104.698 C 82.548 103.979 82.413 103.344 82.142 102.792 C 81.871 102.229 81.485 101.787 80.985 101.464 C 80.496 101.13 79.907 100.964 79.22 100.964 C 78.605 100.964 78.043 101.104 77.532 101.386 C 77.022 101.656 76.616 102.042 76.314 102.542 C 76.022 103.042 75.876 103.636 75.876 104.323 L 75.876 105.167 C 75.876 105.813 76.022 106.38 76.314 106.87 C 76.616 107.36 77.022 107.745 77.532 108.026 C 78.043 108.307 78.605 108.448 79.22 108.448 Z M 90.588 109.589 C 89.807 109.589 89.119 109.453 88.525 109.182 C 87.932 108.912 87.426 108.547 87.01 108.089 C 86.603 107.63 86.291 107.12 86.072 106.557 C 85.864 105.985 85.76 105.406 85.76 104.823 L 85.76 104.573 C 85.76 103.99 85.869 103.412 86.088 102.839 C 86.307 102.266 86.624 101.755 87.041 101.307 C 87.458 100.86 87.963 100.5 88.557 100.229 C 89.15 99.948 89.827 99.807 90.588 99.807 C 91.369 99.807 92.057 99.948 92.65 100.229 C 93.244 100.5 93.749 100.86 94.166 101.307 C 94.583 101.755 94.895 102.266 95.103 102.839 C 95.322 103.412 95.432 103.99 95.432 104.573 L 95.432 104.823 C 95.432 105.406 95.327 105.985 95.119 106.557 C 94.911 107.12 94.598 107.63 94.182 108.089 C 93.775 108.547 93.27 108.912 92.666 109.182 C 92.072 109.453 91.379 109.589 90.588 109.589 Z M 90.588 108.432 C 91.359 108.432 92.004 108.261 92.525 107.917 C 93.057 107.573 93.458 107.125 93.728 106.573 C 94.01 106.011 94.15 105.386 94.15 104.698 C 94.15 104.011 94.004 103.386 93.713 102.823 C 93.432 102.261 93.025 101.818 92.494 101.495 C 91.963 101.162 91.327 100.995 90.588 100.995 C 89.869 100.995 89.244 101.162 88.713 101.495 C 88.182 101.818 87.77 102.261 87.478 102.823 C 87.197 103.386 87.057 104.011 87.057 104.698 C 87.057 105.386 87.192 106.011 87.463 106.573 C 87.744 107.125 88.145 107.573 88.666 107.917 C 89.197 108.261 89.838 108.432 90.588 108.432 Z" fill-rule="nonzero" transform="matrix(1, 0, 0, 1, 10.631474, 11.065177)"/>
  <path fill="#dcd4e0" d="M 486.228 96.558 C 486.228 66.16 510.87 41.518 541.267 41.518 C 555.864 41.518 569.864 47.317 580.186 57.639 C 590.508 67.961 596.306 81.961 596.306 96.558 C 596.306 126.955 571.664 151.597 541.267 151.597 C 510.87 151.597 486.228 126.955 486.228 96.558 Z" fill-rule="evenodd" transform="matrix(1, 0, 0, 1, 10.631474, 11.065177)"/>
  <path fill="#000000" d="M 492.943 91.831 L 492.943 80.144 L 494.521 80.144 L 498.209 88.238 L 498.49 88.238 L 502.162 80.144 L 503.771 80.144 L 503.771 91.831 L 502.552 91.831 L 502.552 81.519 L 502.646 81.534 L 499.099 89.363 L 497.506 89.363 L 493.927 81.534 L 494.052 81.519 L 494.052 91.831 L 492.943 91.831 Z M 510.079 92.066 C 509.058 92.066 508.282 91.738 507.751 91.081 C 507.22 90.425 506.954 89.514 506.954 88.347 L 506.954 83.347 L 508.142 83.347 L 508.142 88.581 C 508.142 89.321 508.335 89.909 508.72 90.347 C 509.116 90.774 509.657 90.988 510.345 90.988 C 511.074 90.988 511.652 90.758 512.079 90.3 C 512.517 89.842 512.736 89.227 512.736 88.456 L 512.736 83.347 L 513.939 83.347 L 513.939 91.831 L 512.97 91.831 L 512.97 88.3 L 513.157 88.3 C 513.157 89.081 513.043 89.753 512.814 90.316 C 512.595 90.878 512.262 91.31 511.814 91.613 C 511.366 91.915 510.803 92.066 510.126 92.066 L 510.079 92.066 Z M 517.14 91.831 L 517.14 80.144 L 518.343 80.144 L 518.343 91.831 L 517.14 91.831 Z M 515.921 81.128 L 515.921 80.144 L 518.343 80.144 L 518.343 81.128 L 515.921 81.128 Z M 524.524 91.925 C 523.941 91.925 523.435 91.842 523.008 91.675 C 522.581 91.498 522.248 91.206 522.008 90.8 C 521.779 90.394 521.665 89.842 521.665 89.144 L 521.665 80.691 L 522.805 80.691 L 522.805 89.316 C 522.805 89.805 522.941 90.185 523.211 90.456 C 523.482 90.717 523.863 90.847 524.352 90.847 L 525.868 90.847 L 525.868 91.925 L 524.524 91.925 Z M 520.133 84.284 L 520.133 83.363 L 525.868 83.363 L 525.868 84.284 L 520.133 84.284 Z M 528.635 91.831 L 528.635 83.363 L 529.822 83.363 L 529.822 91.831 L 528.635 91.831 Z M 527.276 84.331 L 527.276 83.363 L 529.822 83.363 L 529.822 84.331 L 527.276 84.331 Z M 528.885 81.8 C 528.604 81.8 528.39 81.722 528.244 81.566 C 528.099 81.409 528.026 81.217 528.026 80.988 C 528.026 80.748 528.099 80.555 528.244 80.409 C 528.39 80.253 528.604 80.175 528.885 80.175 C 529.177 80.175 529.39 80.253 529.526 80.409 C 529.671 80.555 529.744 80.748 529.744 80.988 C 529.744 81.217 529.671 81.409 529.526 81.566 C 529.39 81.722 529.177 81.8 528.885 81.8 Z M 537.881 91.878 L 537.881 90.8 L 541.303 90.8 C 542.001 90.8 542.543 90.602 542.928 90.206 C 543.324 89.81 543.522 89.279 543.522 88.613 C 543.522 87.967 543.329 87.446 542.944 87.05 C 542.558 86.644 542.012 86.441 541.303 86.441 L 537.881 86.441 L 537.881 85.644 L 541.131 85.644 C 541.84 85.644 542.465 85.743 543.006 85.941 C 543.548 86.139 543.97 86.451 544.272 86.878 C 544.585 87.305 544.741 87.863 544.741 88.55 L 544.741 88.738 C 544.741 89.373 544.605 89.93 544.335 90.409 C 544.074 90.878 543.678 91.243 543.147 91.503 C 542.616 91.753 541.944 91.878 541.131 91.878 L 537.881 91.878 Z M 536.975 91.878 L 536.975 80.097 L 538.194 80.097 L 538.194 91.878 L 536.975 91.878 Z M 537.881 86.222 L 537.881 85.409 L 540.881 85.409 C 541.611 85.409 542.152 85.211 542.506 84.816 C 542.861 84.42 543.038 83.915 543.038 83.3 C 543.038 82.675 542.861 82.165 542.506 81.769 C 542.152 81.373 541.611 81.175 540.881 81.175 L 537.881 81.175 L 537.881 80.097 L 540.663 80.097 C 541.871 80.097 542.772 80.373 543.366 80.925 C 543.97 81.467 544.272 82.217 544.272 83.175 L 544.272 83.363 C 544.272 84.04 544.121 84.592 543.819 85.019 C 543.517 85.435 543.095 85.743 542.553 85.941 C 542.022 86.128 541.392 86.222 540.663 86.222 L 537.881 86.222 Z M 547.462 91.831 L 547.462 83.363 L 548.431 83.363 L 548.431 86.909 L 548.337 86.909 C 548.337 85.67 548.608 84.753 549.149 84.159 C 549.691 83.566 550.545 83.269 551.712 83.269 L 551.978 83.269 L 551.978 84.363 L 551.478 84.363 C 550.561 84.363 549.863 84.602 549.384 85.081 C 548.905 85.55 548.665 86.243 548.665 87.159 L 548.665 91.831 L 547.462 91.831 Z M 559.034 91.831 L 559.034 89.284 L 558.847 89.284 L 558.847 86.284 C 558.847 85.649 558.68 85.165 558.347 84.831 C 558.013 84.498 557.503 84.331 556.815 84.331 C 556.493 84.331 556.17 84.336 555.847 84.347 C 555.524 84.357 555.211 84.373 554.909 84.394 C 554.618 84.404 554.362 84.42 554.144 84.441 L 554.144 83.378 C 554.373 83.357 554.607 83.336 554.847 83.316 C 555.097 83.295 555.352 83.284 555.612 83.284 C 555.883 83.274 556.138 83.269 556.378 83.269 C 557.243 83.269 557.935 83.378 558.456 83.597 C 558.987 83.805 559.373 84.139 559.612 84.597 C 559.862 85.045 559.987 85.644 559.987 86.394 L 559.987 91.831 L 559.034 91.831 Z M 556.175 92.05 C 555.571 92.05 555.039 91.946 554.581 91.738 C 554.123 91.519 553.769 91.211 553.519 90.816 C 553.269 90.409 553.144 89.915 553.144 89.331 C 553.144 88.769 553.274 88.29 553.534 87.894 C 553.795 87.498 554.175 87.196 554.675 86.988 C 555.175 86.779 555.774 86.675 556.472 86.675 L 558.956 86.675 L 558.956 87.597 L 556.394 87.597 C 555.727 87.597 555.211 87.758 554.847 88.081 C 554.493 88.404 554.315 88.826 554.315 89.347 C 554.315 89.878 554.503 90.305 554.878 90.628 C 555.253 90.941 555.758 91.097 556.394 91.097 C 556.789 91.097 557.17 91.024 557.534 90.878 C 557.899 90.732 558.201 90.488 558.44 90.144 C 558.69 89.8 558.826 89.321 558.847 88.706 L 559.19 89.206 C 559.149 89.831 558.998 90.357 558.737 90.784 C 558.487 91.201 558.144 91.519 557.706 91.738 C 557.269 91.946 556.758 92.05 556.175 92.05 Z M 562.982 91.831 L 562.982 83.363 L 563.951 83.363 L 563.951 86.925 L 563.748 86.925 C 563.748 86.133 563.867 85.456 564.107 84.894 C 564.347 84.321 564.701 83.883 565.169 83.581 C 565.638 83.269 566.227 83.113 566.935 83.113 L 566.982 83.113 C 568.055 83.113 568.852 83.446 569.373 84.113 C 569.893 84.779 570.154 85.717 570.154 86.925 L 570.154 91.831 L 568.966 91.831 L 568.966 86.659 C 568.966 85.93 568.763 85.342 568.357 84.894 C 567.951 84.446 567.388 84.222 566.669 84.222 C 565.919 84.222 565.315 84.456 564.857 84.925 C 564.409 85.383 564.185 85.988 564.185 86.738 L 564.185 91.831 L 562.982 91.831 Z M 576.72 92.097 C 576.001 92.097 575.376 91.972 574.845 91.722 C 574.324 91.472 573.887 91.133 573.533 90.706 C 573.178 90.269 572.913 89.79 572.736 89.269 C 572.559 88.748 572.47 88.222 572.47 87.691 L 572.47 87.456 C 572.47 86.915 572.559 86.389 572.736 85.878 C 572.913 85.357 573.178 84.889 573.533 84.472 C 573.887 84.045 574.324 83.706 574.845 83.456 C 575.376 83.206 575.991 83.081 576.689 83.081 C 577.387 83.081 578.012 83.211 578.564 83.472 C 579.116 83.722 579.559 84.081 579.892 84.55 C 580.236 85.019 580.439 85.576 580.501 86.222 L 579.361 86.222 C 579.257 85.628 578.975 85.139 578.517 84.753 C 578.069 84.368 577.46 84.175 576.689 84.175 C 576.012 84.175 575.449 84.326 575.001 84.628 C 574.564 84.93 574.23 85.342 574.001 85.863 C 573.783 86.373 573.673 86.946 573.673 87.581 C 573.673 88.196 573.783 88.769 574.001 89.3 C 574.23 89.821 574.569 90.243 575.017 90.566 C 575.465 90.878 576.033 91.034 576.72 91.034 C 577.241 91.034 577.694 90.941 578.079 90.753 C 578.475 90.566 578.793 90.316 579.033 90.003 C 579.272 89.68 579.413 89.326 579.454 88.941 L 580.611 88.941 C 580.559 89.576 580.355 90.133 580.001 90.613 C 579.647 91.081 579.184 91.446 578.611 91.706 C 578.048 91.967 577.418 92.097 576.72 92.097 Z M 582.806 91.831 L 582.806 80.144 L 584.009 80.144 L 584.009 86.753 L 583.665 87.034 C 583.665 86.243 583.78 85.555 584.009 84.972 C 584.238 84.378 584.582 83.92 585.04 83.597 C 585.509 83.274 586.092 83.113 586.79 83.113 L 586.853 83.113 C 587.884 83.113 588.66 83.451 589.181 84.128 C 589.712 84.795 589.978 85.727 589.978 86.925 L 589.978 91.831 L 588.79 91.831 L 588.79 86.659 C 588.79 85.909 588.582 85.316 588.165 84.878 C 587.749 84.441 587.191 84.222 586.493 84.222 C 585.733 84.222 585.129 84.467 584.681 84.956 C 584.233 85.435 584.009 86.071 584.009 86.863 L 584.009 91.831 L 582.806 91.831 Z" fill-rule="nonzero" transform="matrix(1, 0, 0, 1, 10.631474, 11.065177)"/>
  <path fill="#000000" d="M 508.841 111.031 L 505.606 99.344 L 506.856 99.344 L 509.778 110.25 L 509.216 109.922 L 510.778 109.922 L 510.169 110.25 L 512.544 99.859 L 513.7 99.859 L 511.075 111.031 L 508.841 111.031 Z M 515.856 111.031 L 512.981 99.859 L 514.169 99.859 L 516.825 110.25 L 516.231 109.922 L 517.809 109.922 L 517.2 110.25 L 519.841 99.344 L 521.059 99.344 L 518.106 111.031 L 515.856 111.031 Z M 526.595 111.297 C 525.866 111.297 525.225 111.172 524.673 110.922 C 524.131 110.672 523.668 110.339 523.282 109.922 C 522.907 109.495 522.621 109.021 522.423 108.5 C 522.225 107.979 522.126 107.448 522.126 106.906 L 522.126 106.672 C 522.126 106.13 522.225 105.599 522.423 105.078 C 522.631 104.547 522.928 104.073 523.313 103.656 C 523.699 103.24 524.162 102.906 524.704 102.656 C 525.256 102.406 525.886 102.281 526.595 102.281 C 527.313 102.281 527.944 102.406 528.485 102.656 C 529.037 102.906 529.506 103.24 529.892 103.656 C 530.277 104.073 530.569 104.547 530.767 105.078 C 530.964 105.599 531.063 106.13 531.063 106.672 L 531.063 106.906 C 531.063 107.448 530.964 107.979 530.767 108.5 C 530.579 109.021 530.293 109.495 529.907 109.922 C 529.532 110.339 529.069 110.672 528.517 110.922 C 527.964 111.172 527.324 111.297 526.595 111.297 Z M 526.595 110.234 C 527.303 110.234 527.897 110.078 528.376 109.766 C 528.866 109.443 529.235 109.026 529.485 108.516 C 529.746 107.995 529.876 107.422 529.876 106.797 C 529.876 106.151 529.746 105.573 529.485 105.063 C 529.225 104.542 528.85 104.13 528.36 103.828 C 527.871 103.526 527.282 103.375 526.595 103.375 C 525.928 103.375 525.345 103.526 524.845 103.828 C 524.355 104.13 523.98 104.542 523.72 105.063 C 523.459 105.573 523.329 106.151 523.329 106.797 C 523.329 107.422 523.454 107.995 523.704 108.516 C 523.964 109.026 524.334 109.443 524.813 109.766 C 525.303 110.078 525.897 110.234 526.595 110.234 Z M 533.502 111.031 L 533.502 102.563 L 534.471 102.563 L 534.471 106.109 L 534.377 106.109 C 534.377 104.87 534.648 103.953 535.189 103.359 C 535.731 102.766 536.585 102.469 537.752 102.469 L 538.017 102.469 L 538.017 103.563 L 537.517 103.563 C 536.601 103.563 535.903 103.802 535.424 104.281 C 534.945 104.75 534.705 105.443 534.705 106.359 L 534.705 111.031 L 533.502 111.031 Z M 545.715 111.031 L 542.309 107.063 L 540.934 107.063 L 544.95 102.563 L 546.231 102.563 L 542.622 106.578 L 542.7 105.922 L 547.122 111.031 L 545.715 111.031 Z M 539.95 111.031 L 539.95 99.344 L 541.153 99.344 L 541.153 111.031 L 539.95 111.031 Z M 548.904 111.031 L 548.904 101.953 C 548.904 101.057 549.133 100.401 549.591 99.984 C 550.05 99.557 550.737 99.344 551.654 99.344 L 552.498 99.344 L 552.498 100.359 L 551.42 100.359 C 550.972 100.359 550.628 100.479 550.388 100.719 C 550.159 100.958 550.045 101.292 550.045 101.719 L 550.045 111.031 L 548.904 111.031 Z M 547.67 103.563 L 547.67 102.625 L 552.576 102.625 L 552.576 103.563 L 547.67 103.563 Z M 554.638 111.031 L 554.638 99.344 L 555.841 99.344 L 555.841 111.031 L 554.638 111.031 Z M 553.498 100.328 L 553.498 99.344 L 555.841 99.344 L 555.841 100.328 L 553.498 100.328 Z M 562.739 111.297 C 562.01 111.297 561.369 111.172 560.817 110.922 C 560.275 110.672 559.812 110.339 559.426 109.922 C 559.051 109.495 558.765 109.021 558.567 108.5 C 558.369 107.979 558.27 107.448 558.27 106.906 L 558.27 106.672 C 558.27 106.13 558.369 105.599 558.567 105.078 C 558.775 104.547 559.072 104.073 559.458 103.656 C 559.843 103.24 560.307 102.906 560.848 102.656 C 561.4 102.406 562.03 102.281 562.739 102.281 C 563.458 102.281 564.088 102.406 564.629 102.656 C 565.182 102.906 565.65 103.24 566.036 103.656 C 566.421 104.073 566.713 104.547 566.911 105.078 C 567.109 105.599 567.208 106.13 567.208 106.672 L 567.208 106.906 C 567.208 107.448 567.109 107.979 566.911 108.5 C 566.723 109.021 566.437 109.495 566.051 109.922 C 565.676 110.339 565.213 110.672 564.661 110.922 C 564.109 111.172 563.468 111.297 562.739 111.297 Z M 562.739 110.234 C 563.447 110.234 564.041 110.078 564.52 109.766 C 565.01 109.443 565.379 109.026 565.629 108.516 C 565.89 107.995 566.02 107.422 566.02 106.797 C 566.02 106.151 565.89 105.573 565.629 105.063 C 565.369 104.542 564.994 104.13 564.504 103.828 C 564.015 103.526 563.426 103.375 562.739 103.375 C 562.072 103.375 561.489 103.526 560.989 103.828 C 560.499 104.13 560.124 104.542 559.864 105.063 C 559.603 105.573 559.473 106.151 559.473 106.797 C 559.473 107.422 559.598 107.995 559.848 108.516 C 560.109 109.026 560.478 109.443 560.958 109.766 C 561.447 110.078 562.041 110.234 562.739 110.234 Z M 571.877 111.031 L 573.689 102.844 L 575.361 102.844 L 577.455 111.031 L 576.424 111.031 L 574.33 102.891 L 574.705 102.891 L 572.877 111.031 L 571.877 111.031 Z M 571.189 111.031 L 571.189 110.063 L 572.643 110.063 L 572.643 111.031 L 571.189 111.031 Z M 570.893 111.031 L 568.455 102.563 L 569.596 102.563 L 572.018 111.031 L 570.893 111.031 Z M 576.689 111.031 L 576.689 110.063 L 578.111 110.063 L 578.111 111.031 L 576.689 111.031 Z M 577.314 111.031 L 579.424 102.563 L 580.533 102.563 L 578.377 111.031 L 577.314 111.031 Z" fill-rule="nonzero" transform="matrix(1, 0, 0, 1, 10.631474, 11.065177)"/>
  <path fill="#000000" fill-opacity="0.0" d="M 343.204 25.009 L 486.228 25.009 L 486.228 86.427 L 343.204 86.427 L 343.204 25.009 Z" fill-rule="evenodd" transform="matrix(1, 0, 0, 1, 10.631474, 11.065177)"/>
  <path fill="#000000" d="M 388.837 50.946 C 387.775 50.946 386.879 50.774 386.15 50.431 C 385.421 50.087 384.869 49.613 384.494 49.009 C 384.119 48.405 383.931 47.722 383.931 46.962 L 385.244 46.962 C 385.244 47.441 385.364 47.894 385.603 48.321 C 385.843 48.738 386.223 49.076 386.744 49.337 C 387.275 49.597 387.973 49.727 388.837 49.727 C 389.629 49.727 390.285 49.613 390.806 49.384 C 391.337 49.155 391.733 48.842 391.994 48.446 C 392.254 48.05 392.384 47.613 392.384 47.134 C 392.384 46.519 392.145 46.009 391.666 45.602 C 391.186 45.186 390.468 44.941 389.509 44.868 L 388.056 44.727 C 386.973 44.634 386.108 44.295 385.462 43.712 C 384.827 43.128 384.509 42.358 384.509 41.399 C 384.509 40.67 384.681 40.03 385.025 39.477 C 385.369 38.915 385.858 38.472 386.494 38.149 C 387.14 37.826 387.916 37.665 388.822 37.665 C 389.728 37.665 390.509 37.832 391.166 38.165 C 391.822 38.498 392.322 38.951 392.666 39.524 C 393.009 40.097 393.181 40.769 393.181 41.54 L 391.869 41.54 C 391.869 41.071 391.765 40.639 391.556 40.243 C 391.348 39.837 391.02 39.509 390.572 39.259 C 390.124 39.009 389.541 38.884 388.822 38.884 C 388.134 38.884 387.567 38.998 387.119 39.227 C 386.681 39.457 386.353 39.764 386.134 40.149 C 385.926 40.535 385.822 40.951 385.822 41.399 C 385.822 41.962 386.025 42.441 386.431 42.837 C 386.837 43.233 387.421 43.457 388.181 43.509 L 389.634 43.649 C 390.489 43.722 391.218 43.91 391.822 44.212 C 392.426 44.514 392.89 44.915 393.212 45.415 C 393.546 45.905 393.712 46.477 393.712 47.134 C 393.712 47.873 393.509 48.535 393.103 49.118 C 392.707 49.691 392.145 50.139 391.416 50.462 C 390.686 50.785 389.827 50.946 388.837 50.946 Z M 399.743 50.915 C 398.639 50.915 397.795 50.561 397.212 49.852 C 396.639 49.134 396.353 48.139 396.353 46.868 L 396.353 41.462 L 397.634 41.462 L 397.634 47.134 C 397.634 47.925 397.842 48.556 398.259 49.024 C 398.686 49.493 399.275 49.727 400.025 49.727 C 400.816 49.727 401.446 49.483 401.915 48.993 C 402.384 48.493 402.618 47.826 402.618 46.993 L 402.618 41.462 L 403.915 41.462 L 403.915 50.649 L 402.868 50.649 L 402.868 46.821 L 403.087 46.821 C 403.087 47.675 402.962 48.405 402.712 49.009 C 402.472 49.613 402.108 50.082 401.618 50.415 C 401.139 50.748 400.53 50.915 399.79 50.915 L 399.743 50.915 Z M 412.034 50.946 C 411.231 50.946 410.523 50.769 409.909 50.415 C 409.304 50.05 408.83 49.545 408.487 48.899 C 408.153 48.253 407.976 47.509 407.955 46.665 L 408.346 46.665 L 408.346 50.649 L 407.315 50.649 L 407.315 37.993 L 408.612 37.993 L 408.612 44.321 L 408.112 45.493 C 408.132 44.566 408.315 43.785 408.659 43.149 C 409.013 42.503 409.487 42.014 410.08 41.681 C 410.685 41.337 411.367 41.165 412.127 41.165 C 412.794 41.165 413.398 41.295 413.94 41.556 C 414.481 41.806 414.945 42.149 415.33 42.587 C 415.726 43.024 416.023 43.53 416.221 44.102 C 416.429 44.675 416.534 45.28 416.534 45.915 L 416.534 46.165 C 416.534 46.79 416.429 47.389 416.221 47.962 C 416.013 48.524 415.711 49.035 415.315 49.493 C 414.929 49.941 414.461 50.295 413.909 50.556 C 413.356 50.816 412.731 50.946 412.034 50.946 Z M 411.893 49.806 C 412.591 49.806 413.185 49.639 413.674 49.306 C 414.174 48.962 414.554 48.509 414.815 47.946 C 415.086 47.384 415.221 46.748 415.221 46.04 C 415.221 45.321 415.086 44.686 414.815 44.134 C 414.544 43.571 414.159 43.128 413.659 42.806 C 413.159 42.483 412.57 42.321 411.893 42.321 C 411.278 42.321 410.716 42.462 410.205 42.743 C 409.695 43.014 409.289 43.399 408.987 43.899 C 408.695 44.399 408.549 44.993 408.549 45.681 L 408.549 46.524 C 408.549 47.17 408.695 47.738 408.987 48.227 C 409.289 48.717 409.695 49.102 410.205 49.384 C 410.716 49.665 411.278 49.806 411.893 49.806 Z M 419.167 50.649 L 419.167 41.462 L 420.198 41.462 L 420.198 45.337 L 419.995 45.337 C 419.995 44.493 420.11 43.764 420.339 43.149 C 420.579 42.535 420.933 42.061 421.402 41.727 C 421.881 41.384 422.485 41.212 423.214 41.212 L 423.261 41.212 C 423.99 41.212 424.589 41.378 425.058 41.712 C 425.537 42.045 425.891 42.519 426.12 43.134 C 426.36 43.738 426.48 44.472 426.48 45.337 L 426.058 45.337 C 426.058 44.493 426.172 43.764 426.402 43.149 C 426.641 42.535 427 42.061 427.48 41.727 C 427.959 41.384 428.563 41.212 429.292 41.212 L 429.355 41.212 C 430.084 41.212 430.688 41.378 431.167 41.712 C 431.646 42.045 432 42.519 432.23 43.134 C 432.469 43.738 432.589 44.472 432.589 45.337 L 432.589 50.649 L 431.292 50.649 L 431.292 45.04 C 431.292 44.227 431.094 43.587 430.698 43.118 C 430.303 42.639 429.735 42.399 428.995 42.399 C 428.235 42.399 427.631 42.644 427.183 43.134 C 426.745 43.623 426.527 44.285 426.527 45.118 L 426.527 50.649 L 425.23 50.649 L 425.23 45.04 C 425.23 44.227 425.032 43.587 424.636 43.118 C 424.24 42.639 423.672 42.399 422.933 42.399 C 422.172 42.399 421.568 42.644 421.12 43.134 C 420.683 43.623 420.464 44.285 420.464 45.118 L 420.464 50.649 L 419.167 50.649 Z M 436.321 50.649 L 436.321 41.477 L 437.602 41.477 L 437.602 50.649 L 436.321 50.649 Z M 434.837 42.524 L 434.837 41.477 L 437.602 41.477 L 437.602 42.524 L 434.837 42.524 Z M 436.587 39.79 C 436.274 39.79 436.04 39.707 435.884 39.54 C 435.727 39.373 435.649 39.16 435.649 38.899 C 435.649 38.649 435.727 38.441 435.884 38.274 C 436.04 38.108 436.274 38.024 436.587 38.024 C 436.899 38.024 437.128 38.108 437.274 38.274 C 437.43 38.441 437.509 38.649 437.509 38.899 C 437.509 39.16 437.43 39.373 437.274 39.54 C 437.128 39.707 436.899 39.79 436.587 39.79 Z M 444.33 50.759 C 443.705 50.759 443.158 50.665 442.69 50.477 C 442.231 50.29 441.872 49.977 441.612 49.54 C 441.362 49.092 441.237 48.493 441.237 47.743 L 441.237 38.587 L 442.487 38.587 L 442.487 47.931 C 442.487 48.462 442.627 48.868 442.908 49.149 C 443.2 49.431 443.612 49.571 444.143 49.571 L 445.799 49.571 L 445.799 50.759 L 444.33 50.759 Z M 439.596 42.477 L 439.596 41.477 L 445.799 41.477 L 445.799 42.477 L 439.596 42.477 Z" fill-rule="nonzero" transform="matrix(1, 0, 0, 1, 10.631474, 11.065177)"/>
  <path fill="#000000" d="M 379.598 71.449 L 376.098 58.793 L 377.442 58.793 L 380.614 70.606 L 380.004 70.246 L 381.692 70.246 L 381.036 70.606 L 383.614 59.356 L 384.864 59.356 L 382.02 71.449 L 379.598 71.449 Z M 387.192 71.449 L 384.082 59.356 L 385.364 59.356 L 388.239 70.606 L 387.598 70.246 L 389.317 70.246 L 388.661 70.606 L 391.52 58.793 L 392.832 58.793 L 389.629 71.449 L 387.192 71.449 Z M 398.82 71.746 C 398.038 71.746 397.351 71.611 396.757 71.34 C 396.163 71.069 395.658 70.705 395.242 70.246 C 394.835 69.788 394.523 69.277 394.304 68.715 C 394.096 68.142 393.992 67.564 393.992 66.981 L 393.992 66.731 C 393.992 66.147 394.101 65.569 394.32 64.996 C 394.538 64.423 394.856 63.913 395.273 63.465 C 395.689 63.017 396.195 62.658 396.788 62.387 C 397.382 62.106 398.059 61.965 398.82 61.965 C 399.601 61.965 400.288 62.106 400.882 62.387 C 401.476 62.658 401.981 63.017 402.398 63.465 C 402.814 63.913 403.127 64.423 403.335 64.996 C 403.554 65.569 403.663 66.147 403.663 66.731 L 403.663 66.981 C 403.663 67.564 403.559 68.142 403.351 68.715 C 403.143 69.277 402.83 69.788 402.413 70.246 C 402.007 70.705 401.502 71.069 400.898 71.34 C 400.304 71.611 399.611 71.746 398.82 71.746 Z M 398.82 70.59 C 399.59 70.59 400.236 70.418 400.757 70.074 C 401.288 69.731 401.689 69.283 401.96 68.731 C 402.242 68.168 402.382 67.543 402.382 66.856 C 402.382 66.168 402.236 65.543 401.945 64.981 C 401.663 64.418 401.257 63.975 400.726 63.652 C 400.195 63.319 399.559 63.152 398.82 63.152 C 398.101 63.152 397.476 63.319 396.945 63.652 C 396.413 63.975 396.002 64.418 395.71 64.981 C 395.429 65.543 395.288 66.168 395.288 66.856 C 395.288 67.543 395.424 68.168 395.695 68.731 C 395.976 69.283 396.377 69.731 396.898 70.074 C 397.429 70.418 398.07 70.59 398.82 70.59 Z M 406.318 71.449 L 406.318 62.277 L 407.35 62.277 L 407.35 66.106 L 407.24 66.106 C 407.24 64.772 407.537 63.788 408.131 63.152 C 408.725 62.507 409.647 62.184 410.897 62.184 L 411.193 62.184 L 411.193 63.356 L 410.662 63.356 C 409.673 63.356 408.917 63.616 408.397 64.137 C 407.876 64.647 407.615 65.397 407.615 66.387 L 407.615 71.449 L 406.318 71.449 Z M 419.536 71.449 L 415.848 67.152 L 414.348 67.152 L 418.708 62.277 L 420.083 62.277 L 416.192 66.637 L 416.27 65.918 L 421.052 71.449 L 419.536 71.449 Z M 413.302 71.449 L 413.302 58.793 L 414.598 58.793 L 414.598 71.449 L 413.302 71.449 Z M 422.978 71.449 L 422.978 61.621 C 422.978 60.652 423.228 59.939 423.728 59.481 C 424.228 59.022 424.973 58.793 425.962 58.793 L 426.884 58.793 L 426.884 59.887 L 425.712 59.887 C 425.233 59.887 424.863 60.017 424.603 60.277 C 424.353 60.538 424.228 60.902 424.228 61.371 L 424.228 71.449 L 422.978 71.449 Z M 421.65 63.356 L 421.65 62.356 L 426.962 62.356 L 426.962 63.356 L 421.65 63.356 Z M 429.197 71.449 L 429.197 58.793 L 430.509 58.793 L 430.509 71.449 L 429.197 71.449 Z M 427.947 59.856 L 427.947 58.793 L 430.509 58.793 L 430.509 59.856 L 427.947 59.856 Z M 437.964 71.746 C 437.182 71.746 436.495 71.611 435.901 71.34 C 435.307 71.069 434.802 70.705 434.386 70.246 C 433.979 69.788 433.667 69.277 433.448 68.715 C 433.24 68.142 433.136 67.564 433.136 66.981 L 433.136 66.731 C 433.136 66.147 433.245 65.569 433.464 64.996 C 433.682 64.423 434 63.913 434.417 63.465 C 434.833 63.017 435.339 62.658 435.932 62.387 C 436.526 62.106 437.203 61.965 437.964 61.965 C 438.745 61.965 439.432 62.106 440.026 62.387 C 440.62 62.658 441.125 63.017 441.542 63.465 C 441.958 63.913 442.271 64.423 442.479 64.996 C 442.698 65.569 442.807 66.147 442.807 66.731 L 442.807 66.981 C 442.807 67.564 442.703 68.142 442.495 68.715 C 442.287 69.277 441.974 69.788 441.557 70.246 C 441.151 70.705 440.646 71.069 440.042 71.34 C 439.448 71.611 438.755 71.746 437.964 71.746 Z M 437.964 70.59 C 438.734 70.59 439.38 70.418 439.901 70.074 C 440.432 69.731 440.833 69.283 441.104 68.731 C 441.386 68.168 441.526 67.543 441.526 66.856 C 441.526 66.168 441.38 65.543 441.089 64.981 C 440.807 64.418 440.401 63.975 439.87 63.652 C 439.339 63.319 438.703 63.152 437.964 63.152 C 437.245 63.152 436.62 63.319 436.089 63.652 C 435.557 63.975 435.146 64.418 434.854 64.981 C 434.573 65.543 434.432 66.168 434.432 66.856 C 434.432 67.543 434.568 68.168 434.839 68.731 C 435.12 69.283 435.521 69.731 436.042 70.074 C 436.573 70.418 437.214 70.59 437.964 70.59 Z M 447.869 71.449 L 449.822 62.574 L 451.634 62.574 L 453.916 71.449 L 452.791 71.449 L 450.509 62.637 L 450.931 62.637 L 448.963 71.449 L 447.869 71.449 Z M 447.119 71.449 L 447.119 70.387 L 448.697 70.387 L 448.697 71.449 L 447.119 71.449 Z M 446.806 71.449 L 444.15 62.277 L 445.4 62.277 L 448.025 71.449 L 446.806 71.449 Z M 453.088 71.449 L 453.088 70.387 L 454.619 70.387 L 454.619 71.449 L 453.088 71.449 Z M 453.759 71.449 L 456.041 62.277 L 457.244 62.277 L 454.9 71.449 L 453.759 71.449 Z" fill-rule="nonzero" transform="matrix(1, 0, 0, 1, 10.631474, 11.065177)"/>
  <path fill="#4b148c" d="M 373.501 84.44 L 456.571 84.44 L 456.571 80.322 L 464.808 88.558 L 456.571 96.794 L 456.571 92.676 L 373.501 92.676 L 373.501 84.44 Z" fill-rule="evenodd" transform="matrix(1, 0, 0, 1, 10.631474, 11.065177)"/>
</svg>